<svg viewBox="100 337.347 18.904 9.573" xmlns="http://www.w3.org/2000/svg">
  <g transform="translate(85.565 324.799) scale(.3334)" style="fill:#3498db">
    <path d="m58.941 38.928.038.037a2.801 2.801 0 0 1 0 3.96l-8.811 8.812 8.86 8.86a2.8 2.8 0 0 1 0 3.96l-.037.037a2.8 2.8 0 0 1-3.96 0l-8.861-8.86-.036.036-2.018-2.017a2.801 2.801 0 0 1 0-3.96l10.866-10.865a2.798 2.798 0 0 1 3.959 0Z"/>
    <rect transform="rotate(22 72.238 34.212)" x="75.833" y="36.455" width="5.039" height="28.932" rx="2.5" ry="2.5"/>
    <path d="m99.092 64.477.038-.037a2.801 2.801 0 0 0 0-3.96l-8.811-8.812 8.86-8.86a2.8 2.8 0 0 0 0-3.96l-.037-.037a2.8 2.8 0 0 0-3.96 0l-8.861 8.86-.036-.036-2.018 2.017a2.801 2.801 0 0 0 0 3.96l10.866 10.865a2.798 2.798 0 0 0 3.959 0Z" transform="rotate(180 91.723 51.644)"/>
  </g>
</svg>
