<svg viewBox="58.365 300.323 133.551 18.708" xmlns="http://www.w3.org/2000/svg">
  <g transform="translate(43.93 292.041) scale(.3334)" style="fill:#3498db">
    <path d="m58.941 38.928.038.037a2.801 2.801 0 0 1 0 3.96l-8.811 8.812 8.86 8.86a2.8 2.8 0 0 1 0 3.96l-.037.037a2.8 2.8 0 0 1-3.96 0l-8.861-8.86-.036.036-2.018-2.017a2.801 2.801 0 0 1 0-3.96l10.866-10.865a2.798 2.798 0 0 1 3.959 0Z"/>
    <rect transform="rotate(22 72.238 34.212)" x="75.833" y="36.455" width="5.039" height="28.932" rx="2.5" ry="2.5"/>
    <path d="m99.092 64.477.038-.037a2.801 2.801 0 0 0 0-3.96l-8.811-8.812 8.86-8.86a2.8 2.8 0 0 0 0-3.96l-.037-.037a2.8 2.8 0 0 0-3.96 0l-8.861 8.86-.036-.036-2.018 2.017a2.801 2.801 0 0 0 0 3.96l10.866 10.865a2.798 2.798 0 0 0 3.959 0Z" transform="rotate(180 91.723 51.644)"/>
  </g>
  <path d="M132.024 59.829v-29.7h13.005q5.4 0 7.965 2.115 2.565 2.115 2.565 5.985 0 2.385-1.44 4.23-1.44 1.845-4.23 2.34v.045q3.105.45 4.77 2.34 1.665 1.89 1.665 4.5 0 3.825-2.767 5.985-2.768 2.16-8.078 2.16Zm6.03-4.68h6.885q2.52 0 3.735-1.035 1.215-1.035 1.215-2.88 0-1.89-1.215-2.88t-3.735-.99h-6.885Zm0-12.555h6.165q4.905 0 4.905-3.825t-4.905-3.825h-6.165Zm23.863 17.235v-22.5h5.355l.405 4.41q.9-2.34 2.633-3.6 1.732-1.26 4.342-1.26.765 0 1.395.135t1.035.36l-.72 5.175q-.45-.18-1.102-.27-.653-.09-1.688-.09-1.35 0-2.61.652-1.26.653-2.07 1.98-.81 1.328-.81 3.353v11.655Zm29.054-22.95q3.42 0 6.007 1.395 2.588 1.395 4.05 4.005 1.463 2.61 1.463 6.3 0 3.645-1.463 6.277-1.462 2.633-4.05 4.028-2.587 1.395-6.007 1.395-3.375 0-5.985-1.395-2.61-1.395-4.073-4.028-1.462-2.632-1.462-6.277 0-3.69 1.462-6.3 1.463-2.61 4.073-4.005 2.61-1.395 5.985-1.395Zm0 4.59q-1.71 0-2.903.787-1.192.788-1.822 2.363-.63 1.575-.63 3.96t.63 3.96q.63 1.575 1.822 2.362 1.193.788 2.903.788 1.665 0 2.857-.788 1.193-.787 1.823-2.362.63-1.575.63-3.96t-.63-3.96q-.63-1.575-1.823-2.363-1.192-.787-2.857-.787Zm29.691 4.005q0-1.935-1.102-3.015-1.103-1.08-2.903-1.08-1.665 0-2.925.855-1.26.855-1.845 2.835l-5.265-1.62q.765-2.97 3.353-4.77 2.587-1.8 6.952-1.8 2.97 0 5.175.922 2.205.923 3.443 2.768 1.237 1.845 1.237 4.635v9.135q0 1.71 1.62 1.71.765 0 1.44-.225l-.36 3.825q-1.17.585-2.925.585-1.575 0-2.835-.54t-1.98-1.643q-.72-1.102-.72-2.767v-.18l1.08-.18q-.27 1.71-1.485 2.902-1.215 1.193-2.947 1.823-1.733.63-3.578.63-2.295 0-3.96-.698-1.665-.697-2.565-2.047-.9-1.35-.9-3.33 0-2.52 1.62-4.118 1.62-1.597 4.635-2.182l8.46-1.71-.045 3.825-5.4 1.08q-1.53.315-2.317.832-.788.518-.788 1.688 0 1.125.833 1.71.832.585 2.002.585.945 0 1.845-.225t1.62-.72q.72-.495 1.125-1.35.405-.855.405-2.07Zm21.72 14.805q-2.79 0-4.972-1.395-2.183-1.395-3.42-4.005-1.238-2.61-1.238-6.255 0-3.735 1.305-6.368 1.305-2.632 3.533-4.005 2.227-1.372 5.017-1.372 2.97 0 4.905 1.71t2.52 4.41l-.585.72V27.474h6.165v32.355h-5.535l-.405-6.84.72.36q-.27 2.115-1.395 3.667-1.125 1.553-2.835 2.408t-3.78.855Zm1.8-4.725q1.62 0 2.79-.833 1.17-.832 1.823-2.452.652-1.62.652-3.87 0-2.16-.63-3.668-.63-1.507-1.8-2.317-1.17-.81-2.745-.81-2.52 0-3.937 1.777-1.418 1.778-1.418 5.198 0 3.42 1.395 5.197 1.395 1.778 3.87 1.778Zm18.18 4.275v-22.5h5.355l.405 4.41q.9-2.34 2.633-3.6 1.732-1.26 4.342-1.26.765 0 1.395.135t1.035.36l-.72 5.175q-.45-.18-1.102-.27-.653-.09-1.688-.09-1.35 0-2.61.652-1.26.653-2.07 1.98-.81 1.328-.81 3.353v11.655Zm22.397-25.74q-1.935 0-2.88-.833-.945-.832-.945-2.452 0-1.665.945-2.498.945-.832 2.88-.832t2.88.832q.945.833.945 2.498 0 1.62-.945 2.452-.945.833-2.88.833Zm3.06 3.24v22.5h-6.165v-22.5Zm15.337 22.95q-2.79 0-4.972-1.395-2.183-1.395-3.42-4.005-1.238-2.61-1.238-6.255 0-3.735 1.305-6.368 1.305-2.632 3.533-4.005 2.227-1.372 5.017-1.372 2.97 0 4.905 1.71t2.52 4.41l-.585.72V27.474h6.165v32.355h-5.535l-.405-6.84.72.36q-.27 2.115-1.395 3.667-1.125 1.553-2.835 2.408t-3.78.855Zm1.8-4.725q1.62 0 2.79-.833 1.17-.832 1.823-2.452.652-1.62.652-3.87 0-2.16-.63-3.668-.63-1.507-1.8-2.317-1.17-.81-2.745-.81-2.52 0-3.937 1.777-1.418 1.778-1.418 5.198 0 3.42 1.395 5.197 1.395 1.778 3.87 1.778Zm38.926-23.58.72 4.41q-.18 0-.383-.023-.202-.022-.427-.022-2.025 0-3.083.922-1.057.923-1.057 2.543l-2.52-1.035q0-1.8.72-3.353.72-1.552 2.137-2.497 1.418-.945 3.398-.945h.495Zm-7.38 23.625q3.645 0 5.625 1.575t1.98 4.41q0 2.565-1.485 4.342-1.485 1.778-4.163 2.678-2.677.9-6.187.9-5.805 0-8.483-1.62-2.677-1.62-2.677-4.23 0-1.845 1.417-3.105 1.418-1.26 4.703-1.395l-.225.72q-2.34-.405-3.578-1.553-1.237-1.147-1.237-3.172 0-2.07 1.597-3.398 1.598-1.327 4.343-1.552l2.7 1.26h-.63q-1.935.135-2.723.787-.787.653-.787 1.463 0 .945.742 1.417.743.473 2.138.473Zm-4.185 9.675q2.34 0 3.847-.405 1.508-.405 2.25-1.035.743-.63.743-1.395 0-.855-.675-1.373-.675-.517-2.43-.517h-7.605q-1.08 0-1.778.54-.697.54-.697 1.485 0 1.26 1.687 1.98 1.688.72 4.658.72Zm.045-28.395q3.15 0 5.467.922 2.318.923 3.555 2.633 1.238 1.71 1.238 4.095 0 2.34-1.238 4.05-1.237 1.71-3.555 2.632-2.317.923-5.467.923-4.995 0-7.65-2.048-2.655-2.047-2.655-5.557 0-2.385 1.26-4.095t3.555-2.633q2.295-.922 5.49-.922Zm0 3.87q-1.8 0-2.97.99-1.17.99-1.17 2.745 0 1.755 1.17 2.767 1.17 1.013 2.97 1.013 1.8 0 2.947-1.013 1.148-1.012 1.148-2.767t-1.148-2.745q-1.147-.99-2.947-.99Zm26.213 19.53q-3.555 0-6.188-1.395-2.632-1.395-4.072-4.005t-1.44-6.3q0-3.69 1.44-6.3t4.027-4.005q2.588-1.395 5.918-1.395 3.42 0 5.805 1.372 2.385 1.373 3.645 3.735 1.26 2.363 1.26 5.378 0 .9-.045 1.71-.045.81-.135 1.44h-17.955v-4.275h15.255l-2.97 1.08q0-2.835-1.283-4.365-1.282-1.53-3.622-1.53-1.71 0-2.948.81-1.237.81-1.867 2.407-.63 1.598-.63 4.028 0 2.385.697 3.937.698 1.553 1.98 2.318 1.283.765 3.083.765 1.98 0 3.195-.765 1.215-.765 1.89-2.115l4.905 1.89q-.72 1.755-2.183 3.015-1.462 1.26-3.465 1.912-2.002.653-4.297.653Zm41.88-30.15v29.7h-6.21v-29.7Zm-19.305 0v29.7h-6.21v-29.7Zm16.335 12.195v4.995h-19.44v-4.995Zm17.986 17.955q-2.25 0-4.05-.81-1.8-.81-2.857-2.588-1.058-1.777-1.058-4.612v-14.94h6.165v13.455q0 2.61 1.08 3.622 1.08 1.013 3.105 1.013.945 0 1.845-.338.9-.337 1.598-1.057.697-.72 1.102-1.868.405-1.147.405-2.722V37.329h6.165v22.5h-5.49l-.225-3.915q-1.125 2.25-3.082 3.307-1.958 1.058-4.703 1.058Zm33.478 0q-2.07 0-3.758-.878-1.687-.877-2.79-2.43-1.102-1.552-1.507-3.487l.63-.81-.36 7.155h-5.445V27.474h6.165v16.2l-.585-.945q.72-2.52 2.745-4.185 2.025-1.665 5.085-1.665 2.7 0 4.837 1.395 2.138 1.395 3.375 4.005 1.238 2.61 1.238 6.345 0 3.645-1.238 6.255-1.237 2.61-3.42 4.005-2.182 1.395-4.972 1.395Zm-1.845-4.725q2.475 0 3.892-1.778 1.418-1.777 1.418-5.197t-1.395-5.198q-1.395-1.777-3.87-1.777-1.62 0-2.79.855t-1.823 2.43q-.652 1.575-.652 3.735t.652 3.735q.653 1.575 1.845 2.385 1.193.81 2.723.81Z" transform="matrix(.3334 0 0 .35646 37.982 293.548)" style="fill:#ecf0f1;white-space:pre"/>
</svg>
