<svg width="100%" height="100%" viewBox="0 0 63 66" version="1.1" xmlns="http://www.w3.org/2000/svg" fill-rule="evenodd"
    clip-rule="evenodd" stroke-linecap="round" stroke-linejoin="round">
    <g id="NENA">
        <g transform="matrix(1,0,0,1,-381.5,-195.5)">
            <path
                d="M385.2,221.5L389.2,222L393.8,219.9L394.4,217.4L394.2,216.5L401,212.1L403.7,211L411.5,210.9L420.8,210.9L421.9,209.4L423.6,209.1L426.1,208.1L428.9,205.2L432.1,200.3L437.6,195.6L438.7,197.2L442.4,196.2L444,198L441.1,206.5L443.3,210.1L443.5,212.2L437.1,215.2L431.1,217.4L425.1,219.3L421.1,223.1L419.8,224.5L418.6,227.9L419.3,231.2L421.4,231.4L421.6,229.1L422.7,230.5L421.7,232.3L417.9,233.3L415.4,233.2L411.2,234.3L408.9,234.6L405.8,234.9L400.8,236.8L408.9,235.6L410,236.8L402.1,238.7L398.8,238.7L399.2,237.9L397.1,239.7L398.5,240L396,244.6L390.7,249.5L390.8,247.8L389.7,247.5L388.5,245.9L388.5,249.4L389.5,250.5L388.9,252.9L386.5,255.4L382,260.5L381.6,260.3L384.5,255.9L382.5,253.5L383.5,248.1L385.2,221.5ZM383.5,248.1L385.2,221.5L383.5,248.1Z"
                fill="#ececec" stroke="#000" stroke-width="0.2px" />
        </g>
        <g id="Selectable">
            <g id="Mt-Laurel" serif:id="Mt Laurel" transform="matrix(0.321561,0,0,0.321561,-52.6124,-12.7827)">
                <path d="M181.45,175.089L186.432,180.072L181.45,185.054L176.468,180.072L181.45,175.089Z"
                    fill="#1d4ed8" />
                <g transform="matrix(1,0,0,1,-6.34356,-0.00264457)">
                    <g transform="matrix(5.41607,0,0,5.41607,199.033,173.13)">
                    </g>
                    <text x="176.456px" y="173.13px" font-family="ArialMT, Arial, sans-serif" font-size="5.416px">Mt
                        Laurel</text>
                </g>
            </g>
            <g id="South-Windsor" serif:id="South Windsor" transform="matrix(0.321561,0,0,0.321561,-25.3603,-26.9562)">
                <path d="M181.45,175.089L186.432,180.072L181.45,185.054L176.468,180.072L181.45,175.089Z"
                    fill="#1d4ed8" />
                <g transform="matrix(1,0,0,1,-6.34356,-0.00264457)">
                    <g transform="matrix(5.41607,0,0,5.41607,205.506,173.13)">
                    </g>
                    <text x="169.984px" y="173.13px" font-family="ArialMT, Arial, sans-serif" font-size="5.416px">South
                        Windsor</text>
                </g>
            </g>
            <g id="Boston" transform="matrix(0.321561,0,0,0.321561,-1.70002,-41.6311)">
                <path d="M181.45,175.089L186.432,180.072L181.45,185.054L176.468,180.072L181.45,175.089Z"
                    fill="#1d4ed8" />
                <g transform="matrix(1,0,0,1,-6.34356,-0.00264457)">
                    <g transform="matrix(5.41607,0,0,5.41607,196.176,173.13)">
                    </g>
                    <text x="179.314px" y="173.13px" font-family="ArialMT, Arial, sans-serif"
                        font-size="5.416px">Boston</text>
                </g>
            </g>
            <g id="Andover" transform="matrix(0.321561,0,0,0.321561,-1.01587,-48.9857)">
                <path d="M181.45,175.089L186.432,180.072L181.45,185.054L176.468,180.072L181.45,175.089Z"
                    fill="#1d4ed8" />
                <g transform="matrix(1,0,0,1,-6.34356,-0.00264457)">
                    <g transform="matrix(5.41607,0,0,5.41607,197.831,173.13)">
                    </g>
                    <text x="177.658px" y="173.13px" font-family="ArialMT, Arial, sans-serif"
                        font-size="5.416px">Andover</text>
                </g>
            </g>
            <g id="Lake-Success" serif:id="Lake Success" transform="matrix(0.321561,0,0,0.321561,-32.715,-16.5976)">
                <path d="M181.45,175.089L186.432,180.072L181.45,185.054L176.468,180.072L181.45,175.089Z"
                    fill="#1d4ed8" />
                <g transform="matrix(1,0,0,1,12.3154,15.5465)">
                    <g transform="matrix(5.41607,0,0,5.41607,203.25,173.13)">
                    </g>
                    <text x="169.531px" y="173.13px" font-family="ArialMT, Arial, sans-serif" font-size="5.416px">Lake
                        Success</text>
                </g>
            </g>
            <g id="Edgewood-1" serif:id="Edgewood 1" transform="matrix(0.321561,0,0,0.321561,-36.219,-16.0845)">
                <path d="M181.45,175.089L186.432,180.072L181.45,185.054L176.468,180.072L181.45,175.089Z"
                    fill="#1d4ed8" />
                <g transform="matrix(1,0,0,1,-6.34356,-0.00264457)">
                    <g transform="matrix(5.41607,0,0,5.41607,202.801,173.13)">
                    </g>
                    <text x="172.688px" y="173.13px" font-family="ArialMT, Arial, sans-serif"
                        font-size="5.416px">Edgewood 1</text>
                </g>
            </g>
            <g id="Edgewood-2-" serif:id="Edgewood 2 " transform="matrix(0.321561,0,0,0.321561,-39.723,-16.0845)">
                <path d="M181.45,175.089L186.432,180.072L181.45,185.054L176.468,180.072L181.45,175.089Z"
                    fill="#1d4ed8" />
                <g transform="matrix(1,0,0,1,-6.34356,18.6563)">
                    <g transform="matrix(5.41607,0,0,5.41607,202.801,173.13)">
                    </g>
                    <text x="172.688px" y="173.13px" font-family="ArialMT, Arial, sans-serif"
                        font-size="5.416px">Edgewood 2</text>
                </g>
            </g>
            <g id="Thrid-Avenue" serif:id="Thrid Avenue" transform="matrix(0.321561,0,0,0.321561,-43.1438,-16.8936)">
                <path d="M181.45,175.089L186.432,180.072L181.45,185.054L176.468,180.072L181.45,175.089Z"
                    fill="#1d4ed8" />
                <g transform="matrix(1,0,0,1,-25.0026,-0.00264457)">
                    <g transform="matrix(5.41607,0,0,5.41607,203.653,173.13)">
                    </g>
                    <text x="171.836px" y="173.13px" font-family="ArialMT, Arial, sans-serif" font-size="5.416px">Thrid
                        <tspan x="185.382px 188.896px " y="173.13px 173.13px ">Av</tspan>enue
                    </text>
                </g>
            </g>
            <g id="Gateway-Center" serif:id="Gateway Center" transform="matrix(0.321561,0,0,0.321561,-39.723,-20.8351)">
                <path d="M181.45,175.089L186.432,180.072L181.45,185.054L176.468,180.072L181.45,175.089Z"
                    fill="#1d4ed8" />
                <g transform="matrix(1,0,0,1,-6.34356,-0.00264457)">
                    <g transform="matrix(5.41607,0,0,5.41607,207.312,173.13)">
                    </g>
                    <text x="168.177px" y="173.13px" font-family="ArialMT, Arial, sans-serif"
                        font-size="5.416px">Gateway Center</text>
                </g>
            </g>
        </g>
    </g>
</svg>